<svg xmlns="http://www.w3.org/2000/svg" viewBox="0 0 512 512" width="512" height="512">
  <defs>
    <radialGradient id="bg" cx="50%" cy="40%" r="50%">
      <stop offset="0%" stop-color="#7B1FA2"/>
      <stop offset="100%" stop-color="#4A148C"/>
    </radialGradient>
  </defs>
  <circle cx="256" cy="256" r="256" fill="url(#bg)"/>
  <circle cx="256" cy="195" r="70" fill="#FFCC80" stroke="#FFB74D" stroke-width="4"/>
  <circle cx="238" cy="185" r="8" fill="#5D4037"/>
  <circle cx="274" cy="185" r="8" fill="#5D4037"/>
  <path d="M230 210 Q256 230 282 210" stroke="#5D4037" stroke-width="5" fill="none" stroke-linecap="round"/>
  <rect x="186" y="280" width="140" height="70" rx="12" fill="#CE93D8"/>
  <rect x="196" y="295" width="120" height="8" rx="4" fill="#7B1FA2"/>
  <rect x="196" y="315" width="100" height="8" rx="4" fill="#4A148C"/>
  <rect x="206" y="370" width="50" height="80" rx="10" fill="#1A237E"/>
  <rect x="256" y="370" width="50" height="80" rx="10" fill="#1A237E"/>
  <line x1="231" y1="400" x2="281" y2="400" stroke="#333" stroke-width="8"/>
  <line x1="231" y1="420" x2="281" y2="420" stroke="#333" stroke-width="8"/>
  <circle cx="231" cy="420" r="15" fill="#333"/>
  <circle cx="281" cy="420" r="15" fill="#333"/>
</svg>
