<svg xmlns="http://www.w3.org/2000/svg" viewBox="0 0 512 512" width="512" height="512">
  <defs>
    <radialGradient id="bg" cx="50%" cy="40%" r="50%">
      <stop offset="0%" stop-color="#1A237E"/>
      <stop offset="100%" stop-color="#0D47A1"/>
    </radialGradient>
    <radialGradient id="visor" cx="50%" cy="50%" r="50%">
      <stop offset="0%" stop-color="#4FC3F7"/>
      <stop offset="100%" stop-color="#0277BD"/>
    </radialGradient>
  </defs>
  <circle cx="256" cy="256" r="256" fill="url(#bg)"/>
  <circle cx="256" cy="195" r="85" fill="white"/>
  <circle cx="256" cy="195" r="75" fill="url(#visor)"/>
  <circle cx="240" cy="185" r="8" fill="white" opacity="0.5"/>
  <rect x="160" y="260" width="192" height="130" rx="20" fill="white"/>
  <rect x="180" y="280" width="152" height="40" rx="8" fill="#E0E0E0"/>
  <line x1="200" y1="300" x2="312" y2="300" stroke="#BDBDBD" stroke-width="2"/>
  <rect x="180" y="330" width="152" height="30" rx="8" fill="#E0E0E0"/>
  <circle cx="200" cy="345" r="5" fill="#F44336"/>
  <circle cx="220" cy="345" r="5" fill="#4CAF50"/>
  <rect x="120" y="380" width="272" height="30" rx="10" fill="#E0E0E0"/>
  <circle cx="120" cy="200" r="15" fill="#BDBDBD"/>
  <circle cx="392" cy="200" r="15" fill="#BDBDBD"/>
  <circle cx="80" cy="310" r="10" fill="#FFEB3B"/>
  <circle cx="432" cy="310" r="10" fill="#FFEB3B"/>
  <circle cx="100" cy="370" r="8" fill="#4CAF50"/>
  <circle cx="412" cy="370" r="8" fill="#4CAF50"/>
</svg>
