<svg xmlns="http://www.w3.org/2000/svg" viewBox="0 0 512 512" width="512" height="512">
  <defs>
    <radialGradient id="bg" cx="50%" cy="40%" r="50%">
      <stop offset="0%" stop-color="#FF6F00"/>
      <stop offset="100%" stop-color="#E65100"/>
    </radialGradient>
  </defs>
  <circle cx="256" cy="256" r="256" fill="url(#bg)"/>
  <circle cx="256" cy="200" r="60" fill="#FFCC80" stroke="#FFB74D" stroke-width="4"/>
  <circle cx="238" cy="190" r="8" fill="#5D4037"/>
  <circle cx="274" cy="190" r="8" fill="#5D4037"/>
  <path d="M225 215 Q256 238 287 215" stroke="#5D4037" stroke-width="5" fill="none" stroke-linecap="round"/>
  <rect x="156" y="280" width="200" height="110" rx="20" fill="#37474F"/>
  <circle cx="190" cy="390" r="30" fill="#222"/>
  <circle cx="322" cy="390" r="30" fill="#222"/>
  <circle cx="190" cy="390" r="15" fill="#555"/>
  <circle cx="322" cy="390" r="15" fill="#555"/>
  <circle cx="256" cy="335" r="35" fill="#1A237E"/>
  <rect x="200" y="320" width="112" height="30" rx="5" fill="#1565C0"/>
  <rect x="236" y="280" width="40" height="40" rx="8" fill="#37474F"/>
  <circle cx="256" cy="290" r="8" fill="#4FC3F7"/>
  <rect x="220" y="310" width="8" height="20" rx="4" fill="#37474F"/>
  <rect x="284" y="310" width="8" height="20" rx="4" fill="#37474F"/>
</svg>
