<svg xmlns="http://www.w3.org/2000/svg" viewBox="0 0 512 512" width="512" height="512">
  <defs>
    <radialGradient id="bg" cx="50%" cy="40%" r="50%">
      <stop offset="0%" stop-color="#66BB6A"/>
      <stop offset="100%" stop-color="#2E7D32"/>
    </radialGradient>
  </defs>
  <circle cx="256" cy="256" r="256" fill="url(#bg)"/>
  <ellipse cx="256" cy="350" rx="100" ry="80" fill="#43A047"/>
  <path d="M120 280 Q120 160 256 160 Q392 160 392 280" fill="#66BB6A"/>
  <circle cx="226" cy="230" r="15" fill="white"/>
  <circle cx="286" cy="230" r="15" fill="white"/>
  <circle cx="232" cy="230" r="7" fill="#1B5E20"/>
  <circle cx="292" cy="230" r="7" fill="#1B5E20"/>
  <path d="M235 260 Q256 280 277 260" stroke="#1B5E20" stroke-width="6" fill="none" stroke-linecap="round"/>
  <polygon points="180,200 200,140 312,140 332,200" fill="#43A047"/>
  <circle cx="180" cy="200" r="15" fill="#81C784"/>
  <circle cx="332" cy="200" r="15" fill="#81C784"/>
  <circle cx="160" cy="240" r="12" fill="#FF8A65"/>
  <circle cx="352" cy="240" r="12" fill="#FF8A65"/>
</svg>
