<svg xmlns="http://www.w3.org/2000/svg" viewBox="0 0 512 512" width="512" height="512">
  <defs>
    <radialGradient id="bg" cx="50%" cy="40%" r="50%">
      <stop offset="0%" stop-color="#F44336"/>
      <stop offset="100%" stop-color="#B71C1C"/>
    </radialGradient>
  </defs>
  <circle cx="256" cy="256" r="256" fill="url(#bg)"/>
  <ellipse cx="256" cy="350" rx="180" ry="40" fill="#333"/>
  <rect x="96" y="320" width="320" height="80" rx="15" fill="#1A73E8"/>
  <rect x="136" y="240" width="80" height="80" rx="10" fill="#1A73E8"/>
  <rect x="296" y="240" width="80" height="80" rx="10" fill="#1A73E8"/>
  <circle cx="176" cy="210" r="20" fill="#FFEB3B"/>
  <circle cx="336" cy="210" r="20" fill="#FFEB3B"/>
  <circle cx="256" cy="200" r="55" fill="#FFCC80" stroke="#FFB74D" stroke-width="4"/>
  <circle cx="240" cy="190" r="7" fill="#5D4037"/>
  <circle cx="272" cy="190" r="7" fill="#5D4037"/>
  <path d="M235 215 Q256 230 277 215" stroke="#5D4037" stroke-width="4" fill="none" stroke-linecap="round"/>
  <rect x="236" y="260" width="40" height="50" rx="8" fill="#1565C0"/>
  <rect x="186" y="330" width="25" height="50" rx="8" fill="#333"/>
  <rect x="301" y="330" width="25" height="50" rx="8" fill="#333"/>
  <text x="256" y="460" text-anchor="middle" font-size="48" fill="white" font-weight="bold">🏎</text>
</svg>
